<svg width="16" height="17" viewBox="0 0 16 17" fill="none" xmlns="http://www.w3.org/2000/svg">
<path id="Vector" d="M15.703 7.05828C15.7963 7.59524 15.8428 8.13928 15.842 8.68428C15.842 11.1183 14.972 13.1763 13.458 14.5693H13.46C12.136 15.7923 10.316 16.5003 8.15802 16.5003C6.03629 16.5003 4.00146 15.6574 2.50117 14.1571C1.00087 12.6568 0.15802 10.622 0.15802 8.50028C0.15802 6.37855 1.00087 4.34372 2.50117 2.84343C4.00146 1.34314 6.03629 0.500284 8.15802 0.500284C10.144 0.477025 12.0619 1.22312 13.51 2.58228L11.226 4.86628C10.4004 4.07926 9.29852 3.64827 8.15802 3.66628C6.07102 3.66628 4.29802 5.07428 3.66602 6.97028C3.33093 7.96379 3.33093 9.03978 3.66602 10.0333H3.66902C4.30402 11.9263 6.07402 13.3343 8.16102 13.3343C9.23902 13.3343 10.165 13.0583 10.883 12.5703H10.88C11.2969 12.2941 11.6536 11.9363 11.9284 11.5185C12.2032 11.1007 12.3905 10.6315 12.479 10.1393H8.15802V7.05928L15.703 7.05828Z" fill="#071406"/>
</svg>
